<svg xmlns="http://www.w3.org/2000/svg" viewBox="0 0 512 512" width="512" height="512">
  <defs>
    <linearGradient id="grad1" x1="0%" y1="0%" x2="100%" y2="100%">
      <stop offset="0%" style="stop-color:#5C4BD4;stop-opacity:1" />
      <stop offset="100%" style="stop-color:#00D4FF;stop-opacity:1" />
    </linearGradient>
  </defs>
  
  <!-- Neural network connections -->
  <g opacity="0.6">
    <circle cx="256" cy="156" r="8" fill="#00D4FF"/>
    <circle cx="206" cy="206" r="8" fill="#00D4FF"/>
    <circle cx="306" cy="206" r="8" fill="#00D4FF"/>
    <circle cx="176" cy="256" r="8" fill="#00D4FF"/>
    <circle cx="236" cy="256" r="8" fill="#00D4FF"/>
    <circle cx="276" cy="256" r="8" fill="#00D4FF"/>
    <circle cx="336" cy="256" r="8" fill="#00D4FF"/>
    <circle cx="206" cy="306" r="8" fill="#00D4FF"/>
    <circle cx="306" cy="306" r="8" fill="#00D4FF"/>
    <circle cx="256" cy="356" r="8" fill="#00D4FF"/>
    
    <!-- Connecting lines -->
    <line x1="256" y1="156" x2="206" y2="206" stroke="#00D4FF" stroke-width="2" opacity="0.4"/>
    <line x1="256" y1="156" x2="306" y2="206" stroke="#00D4FF" stroke-width="2" opacity="0.4"/>
    <line x1="206" y1="206" x2="176" y2="256" stroke="#00D4FF" stroke-width="2" opacity="0.4"/>
    <line x1="206" y1="206" x2="236" y2="256" stroke="#00D4FF" stroke-width="2" opacity="0.4"/>
    <line x1="306" y1="206" x2="276" y2="256" stroke="#00D4FF" stroke-width="2" opacity="0.4"/>
    <line x1="306" y1="206" x2="336" y2="256" stroke="#00D4FF" stroke-width="2" opacity="0.4"/>
    <line x1="176" y1="256" x2="206" y2="306" stroke="#00D4FF" stroke-width="2" opacity="0.4"/>
    <line x1="236" y1="256" x2="206" y2="306" stroke="#00D4FF" stroke-width="2" opacity="0.4"/>
    <line x1="276" y1="256" x2="306" y2="306" stroke="#00D4FF" stroke-width="2" opacity="0.4"/>
    <line x1="336" y1="256" x2="306" y2="306" stroke="#00D4FF" stroke-width="2" opacity="0.4"/>
    <line x1="206" y1="306" x2="256" y2="356" stroke="#00D4FF" stroke-width="2" opacity="0.4"/>
    <line x1="306" y1="306" x2="256" y2="356" stroke="#00D4FF" stroke-width="2" opacity="0.4"/>
  </g>
  
  <!-- Main A letter -->
  <path d="M 180 380 L 256 180 L 332 380 L 300 380 L 256 260 L 212 380 Z M 230 320 L 282 320 L 282 340 L 230 340 Z" 
        fill="url(#grad1)" stroke="#5C4BD4" stroke-width="4"/>
</svg>